<svg width="133" height="45" viewBox="0 0 133 45" fill="none" xmlns="http://www.w3.org/2000/svg">
<path d="M73.2422 12.15V33H69.8222V18.72L63.4622 33H61.0922L54.7022 18.72V33H51.2822V12.15H54.9722L62.2922 28.5L69.5822 12.15H73.2422ZM92.8873 24.33C92.8873 24.95 92.8473 25.51 92.7673 26.01H80.1373C80.2373 27.33 80.7273 28.39 81.6073 29.19C82.4873 29.99 83.5673 30.39 84.8473 30.39C86.6873 30.39 87.9873 29.62 88.7473 28.08H92.4373C91.9373 29.6 91.0273 30.85 89.7073 31.83C88.4073 32.79 86.7873 33.27 84.8473 33.27C83.2673 33.27 81.8473 32.92 80.5873 32.22C79.3473 31.5 78.3673 30.5 77.6473 29.22C76.9473 27.92 76.5973 26.42 76.5973 24.72C76.5973 23.02 76.9373 21.53 77.6173 20.25C78.3173 18.95 79.2873 17.95 80.5273 17.25C81.7873 16.55 83.2273 16.2 84.8473 16.2C86.4073 16.2 87.7973 16.54 89.0173 17.22C90.2373 17.9 91.1873 18.86 91.8673 20.1C92.5473 21.32 92.8873 22.73 92.8873 24.33ZM89.3173 23.25C89.2973 21.99 88.8473 20.98 87.9673 20.22C87.0873 19.46 85.9973 19.08 84.6973 19.08C83.5173 19.08 82.5073 19.46 81.6673 20.22C80.8273 20.96 80.3273 21.97 80.1673 23.25H89.3173ZM104.593 16.2C105.893 16.2 107.053 16.47 108.073 17.01C109.113 17.55 109.923 18.35 110.503 19.41C111.083 20.47 111.373 21.75 111.373 23.25V33H107.983V23.76C107.983 22.28 107.613 21.15 106.873 20.37C106.133 19.57 105.123 19.17 103.843 19.17C102.563 19.17 101.543 19.57 100.783 20.37C100.043 21.15 99.6729 22.28 99.6729 23.76V33H96.2529V16.47H99.6729V18.36C100.233 17.68 100.943 17.15 101.803 16.77C102.683 16.39 103.613 16.2 104.593 16.2ZM130.705 16.47V33H127.285V31.05C126.745 31.73 126.035 32.27 125.155 32.67C124.295 33.05 123.375 33.24 122.395 33.24C121.095 33.24 119.925 32.97 118.885 32.43C117.865 31.89 117.055 31.09 116.455 30.03C115.875 28.97 115.585 27.69 115.585 26.19V16.47H118.975V25.68C118.975 27.16 119.345 28.3 120.085 29.1C120.825 29.88 121.835 30.27 123.115 30.27C124.395 30.27 125.405 29.88 126.145 29.1C126.905 28.3 127.285 27.16 127.285 25.68V16.47H130.705Z" fill="white"/>
<path d="M1.67018 20.665C1.22811 20.6649 0.804182 20.4892 0.49164 20.1766C0.179099 19.864 0.00355124 19.44 0.00361558 18.9979L0.00555576 5.66681C0.00562009 5.22474 0.181291 4.80081 0.493924 4.48827C0.806556 4.17573 1.23054 4.00018 1.6726 4.00024L15.0071 4.00218C15.4491 4.00225 15.873 4.17792 16.1856 4.49055C16.4981 4.80318 16.6737 5.22717 16.6736 5.66923L16.6717 19.0003C16.6716 19.4424 16.4959 19.8663 16.1833 20.1789C15.8707 20.4914 15.4467 20.667 15.0046 20.6669L1.67018 20.665ZM25.0055 20.6684C24.5634 20.6683 24.1395 20.4926 23.8269 20.18C23.5144 19.8674 23.3388 19.4434 23.3389 19.0013L23.3408 5.6702C23.3409 5.22814 23.5166 4.8042 23.8292 4.49166C24.1418 4.17912 24.5658 4.00357 25.0079 4.00364L38.339 4.00558C38.7811 4.00564 39.205 4.18131 39.5175 4.49395C39.8301 4.80658 40.0056 5.23056 40.0056 5.67263L40.0036 19.0037C40.0036 19.4458 39.8279 19.8697 39.5153 20.1823C39.2026 20.4948 38.7786 20.6704 38.3366 20.6703L25.0055 20.6684ZM1.66678 44.0002C1.22472 44.0002 0.800785 43.8245 0.488244 43.5119C0.175703 43.1992 0.000155088 42.7753 0.000219425 42.3332L0.00216009 28.9987C0.00222442 28.5567 0.177896 28.1328 0.490528 27.8202C0.80316 27.5077 1.22714 27.3321 1.66921 27.3322L15.0037 27.3341C15.4457 27.3342 15.8697 27.5099 16.1822 27.8225C16.4947 28.1351 16.6703 28.5591 16.6702 29.0012L16.6683 42.3356C16.6682 42.7777 16.4925 43.2016 16.1799 43.5142C15.8673 43.8267 15.4433 44.0022 15.0012 44.0022L1.66678 44.0002ZM25.0021 44.0036C24.56 44.0036 24.1361 43.8279 23.8235 43.5153C23.511 43.2026 23.3354 42.7787 23.3355 42.3366L23.3374 29.0021C23.3375 28.5601 23.5132 28.1361 23.8258 27.8236C24.1384 27.5111 24.5624 27.3355 25.0045 27.3356L38.3356 27.3375C38.7777 27.3376 39.2016 27.5133 39.5141 27.8259C39.8267 28.1385 40.0022 28.5625 40.0022 29.0046L40.0002 42.339C40.0002 42.7811 39.8245 43.205 39.5119 43.5176C39.1992 43.8301 38.7752 44.0056 38.3332 44.0056L25.0021 44.0036Z" fill="white"/>
</svg>
