<svg width="50" height="50" viewBox="0 0 50 50" fill="none" xmlns="http://www.w3.org/2000/svg">
<g clip-path="url(#clip0_452_25)">
<path d="M37.6562 3.23749L46.35 12.3V46.7625H13.8734V46.875H46.4609V12.4141L37.6562 3.23749Z" fill="#909090"/>
<path d="M37.5484 3.125H13.7625V46.7625H46.3499V12.3016L37.5484 3.125Z" fill="#F4F4F4"/>
<path d="M13.5234 5.46875H3.53906V16.1359H34.9453V5.46875H13.5234Z" fill="#7A7B7C"/>
<path d="M35.1125 15.9547H3.74219V5.27966H35.1125V15.9547Z" fill="#DD2025"/>
<path d="M14.1438 7.08436H12.1016V14.5844H13.7078V12.0547L14.0625 12.075C14.4073 12.0702 14.7489 12.0085 15.0734 11.8922C15.3588 11.7953 15.621 11.6405 15.8438 11.4375C16.0721 11.246 16.2516 11.0028 16.3672 10.7281C16.5254 10.273 16.5814 9.78858 16.5313 9.30936C16.5223 8.96694 16.4623 8.62777 16.3531 8.30311C16.2547 8.06843 16.1084 7.85688 15.9236 7.682C15.7388 7.50711 15.5194 7.37274 15.2797 7.28748C15.073 7.21093 14.8588 7.15646 14.6406 7.12498C14.4758 7.09815 14.3092 7.08456 14.1422 7.08436M13.8469 10.6687H13.7078V8.35623H14.0094C14.1425 8.34663 14.276 8.36706 14.4002 8.41602C14.5243 8.46497 14.6358 8.54119 14.7266 8.63904C14.9146 8.89063 15.015 9.19686 15.0125 9.51092C15.0125 9.89529 15.0125 10.2437 14.6656 10.489C14.4158 10.6267 14.1313 10.6901 13.8469 10.6687ZM19.5828 7.06404C19.4094 7.06404 19.2406 7.07654 19.1219 7.08123L18.75 7.09061H17.5313V14.5906H18.9656C19.5137 14.6047 20.0593 14.5118 20.5719 14.3172C20.9846 14.1542 21.3498 13.8904 21.6344 13.55C21.9132 13.208 22.1123 12.8082 22.2172 12.3797C22.3404 11.8952 22.4003 11.3967 22.3953 10.8969C22.4259 10.3065 22.3802 9.71461 22.2594 9.13592C22.1437 8.71043 21.9296 8.31811 21.6344 7.99061C21.4028 7.72578 21.118 7.5128 20.7984 7.36561C20.5247 7.23873 20.2367 7.14535 19.9406 7.08748C19.8229 7.06818 19.7037 7.05929 19.5844 7.06092M19.3 13.2125H19.1437V8.42498H19.1641C19.4862 8.38773 19.8122 8.44587 20.1016 8.59217C20.3135 8.76143 20.4863 8.97467 20.6078 9.21717C20.739 9.47238 20.8146 9.75249 20.8297 10.039C20.8438 10.3828 20.8297 10.664 20.8297 10.8969C20.8355 11.165 20.8182 11.4332 20.7781 11.6984C20.729 11.9704 20.64 12.2336 20.5141 12.4797C20.3718 12.7091 20.1775 12.9018 19.9469 13.0422C19.7542 13.1672 19.5258 13.2254 19.2969 13.2078M27.2344 7.09061H23.4375V14.5906H25.0437V11.6156H27.075V10.2219H25.0437V8.48436H27.2312V7.09061" fill="#464648"/>
<path d="M28.8602 33.4689C28.8602 33.4689 33.8415 32.5658 33.8415 34.2674C33.8415 35.9689 30.7555 35.2767 28.8602 33.4689ZM25.1774 33.5986C24.3859 33.773 23.6145 34.0291 22.8758 34.3627L23.5008 32.9564C24.1258 31.5502 24.7743 29.633 24.7743 29.633C25.5182 30.8894 26.3861 32.0682 27.3649 33.1517C26.628 33.2615 25.8978 33.4117 25.1774 33.6017V33.5986ZM23.2055 23.4424C23.2055 21.9595 23.6852 21.5549 24.0586 21.5549C24.4321 21.5549 24.8524 21.7345 24.8665 23.022C24.7446 24.3166 24.4735 25.5928 24.0586 26.8252C23.4884 25.7912 23.194 24.6278 23.204 23.447L23.2055 23.4424ZM15.9415 39.8736C14.4133 38.9595 19.1462 36.1455 20.004 36.0549C19.9993 36.0564 17.5415 40.8299 15.9415 39.8736ZM35.2961 34.4689C35.2805 34.3127 35.1399 32.583 32.0618 32.6564C30.7787 32.6339 29.4962 32.7244 28.229 32.9267C27.0007 31.6904 25.9433 30.2952 25.0852 28.7783C25.6255 27.2147 25.9529 25.5855 26.0586 23.9345C26.0133 22.0595 25.5649 20.9845 24.1274 21.0002C22.6899 21.0158 22.4805 22.2736 22.6696 24.1455C22.8546 25.4034 23.204 26.6316 23.7086 27.7986C23.7086 27.7986 23.0446 29.8658 22.1665 31.922C21.2883 33.9783 20.6883 35.0564 20.6883 35.0564C19.1611 35.553 17.7235 36.2915 16.4305 37.2439C15.143 38.4424 14.6196 39.3627 15.2977 40.283C15.8821 41.0767 17.9274 41.2564 19.7555 38.8611C20.7252 37.6227 21.6125 36.322 22.4118 34.9674C22.4118 34.9674 25.1993 34.2033 26.0665 33.9939C26.9336 33.7845 27.9821 33.6189 27.9821 33.6189C27.9821 33.6189 30.5274 36.1799 32.9821 36.0892C35.4368 35.9986 35.318 34.622 35.3024 34.472" fill="#DD2025"/>
<path d="M37.4281 3.2453V12.4219H46.2297L37.4281 3.2453Z" fill="#909090"/>
<path d="M37.5485 3.125V12.3016H46.35L37.5485 3.125Z" fill="#F4F4F4"/>
<path d="M14.0234 6.96406H11.9812V14.4641H13.5937V11.9359L13.95 11.9562C14.2947 11.9515 14.6363 11.8897 14.9609 11.7734C15.2462 11.6765 15.5085 11.5217 15.7312 11.3187C15.9579 11.1267 16.1357 10.8836 16.25 10.6094C16.4081 10.1542 16.4642 9.66984 16.414 9.19062C16.4051 8.8482 16.3451 8.50904 16.2359 8.18437C16.1375 7.94969 15.9912 7.73815 15.8064 7.56326C15.6215 7.38837 15.4022 7.254 15.1625 7.16874C14.9548 7.09144 14.7395 7.03645 14.5203 7.00468C14.3555 6.97785 14.1888 6.96426 14.0218 6.96406M13.7265 10.5484H13.5875V8.23593H13.8906C14.0237 8.22633 14.1572 8.24677 14.2814 8.29572C14.4055 8.34467 14.517 8.42089 14.6078 8.51874C14.7958 8.77033 14.8962 9.07656 14.8937 9.39062C14.8937 9.77499 14.8937 10.1234 14.5468 10.3687C14.297 10.5064 14.0125 10.5683 13.7281 10.5469M19.4625 6.94374C19.289 6.94374 19.1203 6.95624 19.0015 6.96093L18.6343 6.97031H17.4156V14.4703H18.85C19.398 14.4844 19.9436 14.3915 20.4562 14.1969C20.8689 14.0339 21.2342 13.7701 21.5187 13.4297C21.7975 13.0877 21.9966 12.6879 22.1015 12.2594C22.2248 11.7749 22.2846 11.2764 22.2796 10.7766C22.3102 10.1862 22.2645 9.59431 22.1437 9.01562C22.028 8.59013 21.8139 8.19781 21.5187 7.87031C21.2871 7.60548 21.0023 7.3925 20.6828 7.24531C20.4091 7.11843 20.121 7.02505 19.825 6.96718C19.7072 6.94788 19.588 6.93899 19.4687 6.94062M19.1843 13.0922H19.0281V8.30468H19.0484C19.3705 8.26743 19.6965 8.32556 19.9859 8.47187C20.1979 8.64113 20.3706 8.85437 20.4921 9.09687C20.6233 9.35208 20.6989 9.63219 20.714 9.91874C20.7281 10.2625 20.714 10.5437 20.714 10.7766C20.7198 11.0447 20.7025 11.3129 20.6625 11.5781C20.6133 11.8501 20.5243 12.1133 20.3984 12.3594C20.2561 12.5888 20.0618 12.7815 19.8312 12.9219C19.6386 13.0469 19.4102 13.1051 19.1812 13.0875M27.114 6.97031H23.3171V14.4703H24.9234V11.4953H26.9546V10.1016H24.9234V8.36406H27.1109V6.97031" fill="white"/>
<path d="M25.1562 47.25C24.286 47.25 23.4514 46.9043 22.8361 46.2889C22.2207 45.6736 21.875 44.839 21.875 43.9688V39.2812C21.875 38.9083 22.0232 38.5506 22.2869 38.2869C22.5506 38.0232 22.9083 37.875 23.2812 37.875C23.6542 37.875 24.0119 38.0232 24.2756 38.2869C24.5393 38.5506 24.6875 38.9083 24.6875 39.2812V43.9688C24.6875 44.2275 24.8975 44.4375 25.1562 44.4375H44.8438C44.9681 44.4375 45.0873 44.3881 45.1752 44.3002C45.2631 44.2123 45.3125 44.0931 45.3125 43.9688V39.2812C45.3125 38.9083 45.4607 38.5506 45.7244 38.2869C45.9881 38.0232 46.3458 37.875 46.7188 37.875C47.0917 37.875 47.4494 38.0232 47.7131 38.2869C47.9768 38.5506 48.125 38.9083 48.125 39.2812V43.9688C48.125 44.839 47.7793 45.6736 47.1639 46.2889C46.5486 46.9043 45.714 47.25 44.8438 47.25H25.1562Z" fill="#DD2025"/>
<path d="M33.5937 35.4169V24.75C33.5937 24.377 33.7419 24.0194 34.0056 23.7556C34.2693 23.4919 34.627 23.3438 35 23.3438C35.3729 23.3438 35.7306 23.4919 35.9943 23.7556C36.2581 24.0194 36.4062 24.377 36.4062 24.75V35.4169L40.1 31.725C40.2305 31.5945 40.3854 31.491 40.5559 31.4204C40.7264 31.3497 40.9092 31.3134 41.0937 31.3134C41.2783 31.3134 41.461 31.3497 41.6315 31.4204C41.8021 31.491 41.957 31.5945 42.0875 31.725C42.218 31.8555 42.3215 32.0104 42.3921 32.1809C42.4628 32.3514 42.4991 32.5342 42.4991 32.7188C42.4991 32.9033 42.4628 33.0861 42.3921 33.2566C42.3215 33.4271 42.218 33.582 42.0875 33.7125L35.9937 39.8062C35.7301 40.0696 35.3726 40.2175 35 40.2175C34.6273 40.2175 34.2699 40.0696 34.0062 39.8062L27.9125 33.7125C27.782 33.582 27.6785 33.4271 27.6078 33.2566C27.5372 33.0861 27.5009 32.9033 27.5009 32.7188C27.5009 32.5342 27.5372 32.3514 27.6078 32.1809C27.6785 32.0104 27.782 31.8555 27.9125 31.725C28.043 31.5945 28.1979 31.491 28.3684 31.4204C28.5389 31.3497 28.7217 31.3134 28.9062 31.3134C29.0908 31.3134 29.2735 31.3497 29.444 31.4204C29.6146 31.491 29.7695 31.5945 29.9 31.725L33.5937 35.4169Z" fill="#DD2025"/>
</g>
<defs>
<clipPath id="clip0_452_25">
<rect width="50" height="50" fill="white"/>
</clipPath>
</defs>
</svg>
