<svg width="44" height="42" viewBox="0 0 44 42" fill="none" xmlns="http://www.w3.org/2000/svg">
<path d="M27.5954 19.9844L10.3 16.9375V39.4516C10.2998 39.6963 10.3479 39.9386 10.4416 40.1647C10.5352 40.3908 10.6726 40.5961 10.8458 40.769C11.0189 40.9419 11.2245 41.0789 11.4508 41.1722C11.677 41.2654 11.9194 41.3131 12.1641 41.3125H42.0079C42.2528 41.3135 42.4956 41.2661 42.7222 41.1731C42.9488 41.08 43.1547 40.943 43.3282 40.7701C43.5018 40.5972 43.6394 40.3917 43.7332 40.1654C43.8271 39.9391 43.8753 39.6965 43.8751 39.4516V31.1563L27.5954 19.9844Z" fill="#185C37"/>
<path d="M27.5954 0.687506H12.1641C11.9194 0.686889 11.677 0.73458 11.4508 0.827844C11.2245 0.921107 11.0189 1.05811 10.8458 1.231C10.6726 1.40388 10.5352 1.60925 10.4416 1.83533C10.3479 2.0614 10.2998 2.30374 10.3 2.54844V10.8438L27.5954 21L36.7532 24.0469L43.8751 21V10.8438L27.5954 0.687506Z" fill="#21A366"/>
<path d="M10.3 10.8438H27.5954V21H10.3V10.8438Z" fill="#107C41"/>
<path opacity="0.1" d="M22.6782 8.8125H10.3V34.2031H22.6782C23.1714 34.2007 23.6438 34.004 23.993 33.6556C24.3422 33.3073 24.5401 32.8354 24.5438 32.3422V10.6734C24.5401 10.1802 24.3422 9.70832 23.993 9.35999C23.6438 9.01165 23.1714 8.81495 22.6782 8.8125Z" fill="black"/>
<path opacity="0.2" d="M21.661 9.82812H10.3V35.2188H21.661C22.1542 35.2163 22.6266 35.0196 22.9758 34.6713C23.325 34.3229 23.5229 33.851 23.5266 33.3578V11.6891C23.5229 11.1958 23.325 10.7239 22.9758 10.3756C22.6266 10.0273 22.1542 9.83058 21.661 9.82812Z" fill="black"/>
<path opacity="0.2" d="M21.661 9.82812H10.3V33.1875H21.661C22.1542 33.185 22.6266 32.9883 22.9758 32.64C23.325 32.2917 23.5229 31.8198 23.5266 31.3266V11.6891C23.5229 11.1958 23.325 10.7239 22.9758 10.3756C22.6266 10.0273 22.1542 9.83058 21.661 9.82812Z" fill="black"/>
<path opacity="0.2" d="M20.6438 9.82812H10.3V33.1875H20.6438C21.137 33.185 21.6094 32.9883 21.9586 32.64C22.3078 32.2917 22.5057 31.8198 22.5094 31.3266V11.6891C22.5057 11.1958 22.3078 10.7239 21.9586 10.3756C21.6094 10.0273 21.137 9.83058 20.6438 9.82812Z" fill="black"/>
<path d="M1.99063 9.82814H20.6437C21.1379 9.82772 21.6119 10.0235 21.9617 10.3724C22.3116 10.7214 22.5085 11.195 22.5094 11.6891V30.3109C22.5085 30.8051 22.3116 31.2786 21.9617 31.6276C21.6119 31.9765 21.1379 32.1723 20.6437 32.1719H1.99063C1.74579 32.1727 1.50321 32.1252 1.27679 32.032C1.05038 31.9388 0.844595 31.8019 0.671253 31.6289C0.497911 31.456 0.360424 31.2506 0.266683 31.0244C0.172942 30.7982 0.124794 30.5558 0.125001 30.3109V11.6891C0.124794 11.4442 0.172942 11.2018 0.266683 10.9756C0.360424 10.7494 0.497911 10.544 0.671253 10.3711C0.844595 10.1982 1.05038 10.0612 1.27679 9.96802C1.50321 9.87485 1.74579 9.82731 1.99063 9.82814Z" fill="url(#paint0_linear_469_16)"/>
<path d="M5.90625 27.0516L9.82969 20.9829L6.23594 14.9485H9.12187L11.0828 18.8125C11.2641 19.1782 11.3953 19.45 11.4547 19.6313H11.4812C11.6094 19.3386 11.7448 19.0542 11.8875 18.7782L13.9844 14.9547H16.6406L12.9547 20.9547L16.7344 27.0563H13.9078L11.6422 22.8204C11.5373 22.6381 11.4479 22.4473 11.375 22.25H11.3375C11.2713 22.4423 11.1832 22.6263 11.075 22.7985L8.74219 27.0516H5.90625Z" fill="white"/>
<path d="M42.0093 0.687511H27.5952V10.8438H43.8749V2.54845C43.8751 2.30361 43.827 2.06115 43.7332 1.83497C43.6395 1.60879 43.502 1.40335 43.3287 1.23045C43.1553 1.05754 42.9495 0.920569 42.7231 0.827397C42.4967 0.734226 42.2541 0.686687 42.0093 0.687511Z" fill="#33C481"/>
<path d="M27.5952 21H43.8749V31.1562H27.5952V21Z" fill="#107C41"/>
<path d="M38.0612 36H31.9388V22.8687H27L35 10L43 22.8687H38.0612V36Z" fill="white"/>
<defs>
<linearGradient id="paint0_linear_469_16" x1="4.02188" y1="8.36564" x2="18.6125" y2="33.6344" gradientUnits="userSpaceOnUse">
<stop stop-color="#18884F"/>
<stop offset="0.5" stop-color="#117E43"/>
<stop offset="1" stop-color="#0B6631"/>
</linearGradient>
</defs>
</svg>
