<svg width="50" height="50" viewBox="0 0 50 50" fill="none" xmlns="http://www.w3.org/2000/svg">
<path opacity="0.2" d="M34.375 21.875C34.375 24.0382 33.7335 26.1529 32.5317 27.9516C31.3299 29.7502 29.6217 31.1521 27.6231 31.9799C25.6245 32.8078 23.4254 33.0244 21.3037 32.6023C19.182 32.1803 17.2332 31.1386 15.7035 29.609C14.1739 28.0793 13.1322 26.1305 12.7102 24.0088C12.2881 21.8871 12.5047 19.688 13.3326 17.6894C14.1604 15.6908 15.5623 13.9826 17.361 12.7808C19.1596 11.579 21.2743 10.9375 23.4375 10.9375C26.3383 10.9375 29.1203 12.0898 31.1715 14.141C33.2227 16.1922 34.375 18.9742 34.375 21.875Z" fill="url(#paint0_linear_440_10)"/>
<path d="M40.625 4.6875H32.8125C32.3981 4.6875 32.0007 4.85212 31.7077 5.14515C31.4146 5.43817 31.25 5.8356 31.25 6.25C31.25 6.6644 31.4146 7.06183 31.7077 7.35485C32.0007 7.64788 32.3981 7.8125 32.8125 7.8125H36.8535L31.9414 12.7246C30.4991 11.3805 28.7593 10.3965 26.864 9.85321C24.9688 9.30989 22.9719 9.22258 21.0365 9.59841C19.1011 9.97424 17.282 10.8026 15.7278 12.0157C14.1737 13.2288 12.9285 14.7924 12.0941 16.5787C11.2596 18.365 10.8596 20.3233 10.9265 22.2937C10.9935 24.2642 11.5256 26.1908 12.4794 27.9163C13.4332 29.6419 14.7816 31.1173 16.4145 32.2221C18.0474 33.327 19.9186 34.0299 21.875 34.2734V37.5H17.1875C16.7731 37.5 16.3757 37.6646 16.0827 37.9576C15.7896 38.2507 15.625 38.6481 15.625 39.0625C15.625 39.4769 15.7896 39.8743 16.0827 40.1674C16.3757 40.4604 16.7731 40.625 17.1875 40.625H21.875V45.3125C21.875 45.7269 22.0396 46.1243 22.3327 46.4174C22.6257 46.7104 23.0231 46.875 23.4375 46.875C23.8519 46.875 24.2494 46.7104 24.5424 46.4174C24.8354 46.1243 25 45.7269 25 45.3125V40.625H29.6875C30.1019 40.625 30.4994 40.4604 30.7924 40.1674C31.0854 39.8743 31.25 39.4769 31.25 39.0625C31.25 38.6481 31.0854 38.2507 30.7924 37.9576C30.4994 37.6646 30.1019 37.5 29.6875 37.5H25V34.2734C27.0944 34.0118 29.0883 33.2235 30.7953 31.9821C32.5023 30.7407 33.8667 29.0868 34.7609 27.1749C35.6552 25.2631 36.0502 23.1557 35.9089 21.0498C35.7676 18.9438 35.0948 16.9081 33.9531 15.1328L39.0625 10.0215V14.0625C39.0625 14.4769 39.2271 14.8743 39.5202 15.1674C39.8132 15.4604 40.2106 15.625 40.625 15.625C41.0394 15.625 41.4369 15.4604 41.7299 15.1674C42.0229 14.8743 42.1875 14.4769 42.1875 14.0625V6.25C42.1875 5.8356 42.0229 5.43817 41.7299 5.14515C41.4369 4.85212 41.0394 4.6875 40.625 4.6875ZM23.4375 31.25C21.5833 31.25 19.7708 30.7002 18.2291 29.67C16.6873 28.6399 15.4857 27.1757 14.7762 25.4627C14.0666 23.7496 13.8809 21.8646 14.2427 20.046C14.6044 18.2275 15.4973 16.557 16.8084 15.2459C18.1195 13.9348 19.79 13.0419 21.6086 12.6801C23.4271 12.3184 25.3121 12.5041 27.0252 13.2136C28.7382 13.9232 30.2024 15.1248 31.2326 16.6665C32.2627 18.2082 32.8125 20.0208 32.8125 21.875C32.8099 24.3606 31.8214 26.7437 30.0638 28.5013C28.3062 30.2589 25.9231 31.2474 23.4375 31.25Z" fill="url(#paint1_linear_440_10)"/>
<defs>
<linearGradient id="paint0_linear_440_10" x1="23.4375" y1="10.9375" x2="23.4375" y2="32.8125" gradientUnits="userSpaceOnUse">
<stop stop-color="#372948"/>
</linearGradient>
<linearGradient id="paint1_linear_440_10" x1="26.5534" y1="4.6875" x2="26.5534" y2="46.875" gradientUnits="userSpaceOnUse">
<stop stop-color="#372948"/>
</linearGradient>
</defs>
</svg>
