<svg width="50" height="50" viewBox="0 0 50 50" fill="none" xmlns="http://www.w3.org/2000/svg">
<path d="M6.25 14.5833C6.25 12.9257 6.90848 11.336 8.08058 10.1639C9.25269 8.99179 10.8424 8.33331 12.5 8.33331H37.5C39.1576 8.33331 40.7473 8.99179 41.9194 10.1639C43.0915 11.336 43.75 12.9257 43.75 14.5833V35.4166C43.75 37.0742 43.0915 38.664 41.9194 39.8361C40.7473 41.0082 39.1576 41.6666 37.5 41.6666H12.5C10.8424 41.6666 9.25269 41.0082 8.08058 39.8361C6.90848 38.664 6.25 37.0742 6.25 35.4166V14.5833Z" stroke="#372948" stroke-width="2" stroke-linecap="round" stroke-linejoin="round"/>
<path d="M31.25 16.6666H35.4167M31.25 25H35.4167M14.5834 33.3333H35.4167M14.5834 20.8333C14.5834 21.9384 15.0224 22.9982 15.8038 23.7796C16.5852 24.561 17.645 25 18.75 25C19.8551 25 20.9149 24.561 21.6963 23.7796C22.4777 22.9982 22.9167 21.9384 22.9167 20.8333C22.9167 19.7282 22.4777 18.6684 21.6963 17.887C20.9149 17.1056 19.8551 16.6666 18.75 16.6666C17.645 16.6666 16.5852 17.1056 15.8038 17.887C15.0224 18.6684 14.5834 19.7282 14.5834 20.8333Z" stroke="#372948" stroke-width="2" stroke-linecap="round" stroke-linejoin="round"/>
</svg>
