<svg width="43" height="43" viewBox="0 0 43 43" fill="none" xmlns="http://www.w3.org/2000/svg">
<path d="M33.5645 30.6188L42.4875 39.5396L39.5395 42.4875L30.6187 33.5646C27.2994 36.2255 23.1708 37.6727 18.9166 37.6667C8.56663 37.6667 0.166626 29.2667 0.166626 18.9167C0.166626 8.56669 8.56663 0.166687 18.9166 0.166687C29.2666 0.166687 37.6666 8.56669 37.6666 18.9167C37.6727 23.1709 36.2254 27.2995 33.5645 30.6188ZM29.3854 29.0729C32.0288 26.3536 33.5053 22.7091 33.5 18.9167C33.5 10.8604 26.9729 4.33335 18.9166 4.33335C10.8604 4.33335 4.33329 10.8604 4.33329 18.9167C4.33329 26.9729 10.8604 33.5 18.9166 33.5C22.7091 33.5053 26.3535 32.0289 29.0729 29.3854L29.3854 29.0729Z" fill="#372948"/>
</svg>
